{"title":"Frank.Skinner.Live.2014.Man.In.A.Suit.BRRiP.XViD.ReLeNTLesS","uid":11617353,"size":898769886,"categoryP":"video","categoryS":"movies","magnet":"?xt=urn:btih:8cf16f1ecf95d8743dc88b8c77e7f448f1ac36d5&amp;dn=Frank.Skinner.Live.2014.Man.In.A.Suit.BRRiP.XViD.ReLeNTLesS&amp;tr=udp%3A%2F%2Ftracker.openbittorrent.com%3A80&amp;tr=udp%3A%2F%2Fopen.demonii.com%3A1337&amp;tr=udp%3A%2F%2Ftracker.coppersurfer.tk%3A6969&amp;tr=udp%3A%2F%2Fexodus.desync.com%3A6969","seeders":1,"leechers":0,"uploader":"sceneline","files":4,"time":1417504139,"description":" &lt;a href=&quot;http://www.scenebyte.com&quot; rel=&quot;nofollow&quot; target=&quot;_NEW&quot;&gt;http://www.scenebyte.com&lt;/a&gt;\n\nSign up is OPEN - for time being. Come and have fun.\n\n&gt;&gt;&gt;&gt;&gt;&gt;&gt;NFO&lt;&lt;&lt;&lt;&lt;&lt;&lt;&lt;&lt;P0STER\n[IMG]http://lookpic.com/O/i2/1035/dvVsGrkY.jpeg[/IMG]\n\nGeneral\nComplete name                            : Frank.Skinner.Live.2014.Man.In.A.Suit.BRRiP.XViD.ReLeNTLesS.avi\nFormat                                   : AVI\nFormat/Info                              : Audio Video Interleave\nFile size                                : 848 MiB\nDuration                                 : 1h 26mn\nOverall bit rate                         : 1 366 Kbps\n\nVideo\nID                                       : 0\nFormat                                   : MPEG-4 Visual\nFormat profile                           : Advanced Simple@L5\nFormat settings, BVOP                    : 2\nFormat settings, QPel                    : No\nFormat settings, GMC                     : No warppoints\nFormat settings, Matrix                  : Default (H.263)\nCodec ID                                 : XVID\nCodec ID/Hint                            : XviD\nDuration                                 : 1h 26mn\nBit rate                                 : 1 200 Kbps\nWidth                                    : 720 pixels\nHeight                                   : 400 pixels\nDisplay aspect ratio                     : 16:9\nFrame rate                               : 25.000 fps\nColor space                              : YUV\nChroma subsampling                       : 4:2:0\nBit depth                                : 8 bits\nScan type                                : Progressive\nCompression mode                         : Lossy\nBits/(Pixel*Frame)                       : 0.167\nStream size                              : 745 MiB (88%)\nWriting library                          : XviD 1.2.1 (UTC 2008-12-04)\n\nAudio\nID                                       : 1\nFormat                                   : MPEG Audio\nFormat version                           : Version 1\nFormat profile                           : Layer 3\nMode                                     : Joint stereo\nCodec ID                                 : 55\nCodec ID/Hint                            : MP3\nDuration                                 : 1h 26mn\nBit rate mode                            : Constant\nBit rate                                 : 160 Kbps\nChannel(s)                               : 2 channels\nSampling rate                            : 48.0 KHz\nCompression mode                         : Lossy\nStream size                              : 99.3 MiB (12%)\nAlignment                                : Aligned on interleaves\nInterleave, duration                     : 160 ms (4.00 video frames)\nInterleave, preload duration             : 216 ms\nTitle                                    : frank.skinner.live.2014.man.in.a.suit.ReLeNTLesS.audio.English\nWriting library                          : LAME3.99r\nSource                                   : shortbrehd Thanks\n\nPL0T\nComedian Frank Skinner returns to the world of stand-up with his brand new live show, MAN IN A SUIT.\n\nCAST\nFrank Skinner\n\nSCREENS\n[IMG]http://lookpic.com/O/i2/697/9BLjc9Qb.png[/IMG]\n[IMG]http://lookpic.com/O/i2/633/SxMvzaUE.png[/IMG]\n[IMG]http://lookpic.com/O/i2/1751/YHSo99t9.png[/IMG]\n[IMG]http://lookpic.com/O/i2/963/K5ByPyoE.png[/IMG]\n[IMG]http://lookpic.com/O/i2/291/Kga37xvP.png[/IMG]\n[IMG]http://lookpic.com/O/i2/1234/f6LL6wr.png[/IMG]\n\nTRAiLER\n\nGREETZ\n\nM0RPH, M00SE, MiLLENiUM, Anonymous, TuX,\n\nACAB, KingStoner, FooKas, 4PlayHD,\n\nGodFather, Cld....\n\nKeep up the good work guyz","torrent":{"xt":"urn:btih:8cf16f1ecf95d8743dc88b8c77e7f448f1ac36d5","amp;dn":"Frank.Skinner.Live.2014.Man.In.A.Suit.BRRiP.XViD.ReLeNTLesS","amp;tr":["udp%3A%2F%2Ftracker.openbittorrent.com%3A80","udp%3A%2F%2Fopen.demonii.com%3A1337","udp%3A%2F%2Ftracker.coppersurfer.tk%3A6969","udp%3A%2F%2Fexodus.desync.com%3A6969"],"infoHash":"8cf16f1ecf95d8743dc88b8c77e7f448f1ac36d5","infoHashBuffer":{"type":"Buffer","data":[140,241,111,30,207,149,216,116,61,200,139,140,119,231,244,72,241,172,54,213]},"announce":[],"urlList":[]}}